<?xml version="1.0" encoding="UTF-8" standalone="no"?>
<svg
   xmlns:dc="http://purl.org/dc/elements/1.1/"
   xmlns:cc="http://creativecommons.org/ns#"
   xmlns:rdf="http://www.w3.org/1999/02/22-rdf-syntax-ns#"
   xmlns:svg="http://www.w3.org/2000/svg"
   xmlns="http://www.w3.org/2000/svg"
   xmlns:sodipodi="http://sodipodi.sourceforge.net/DTD/sodipodi-0.dtd"
   xmlns:inkscape="http://www.inkscape.org/namespaces/inkscape"
   height="512pt"
   viewBox="0 0 512 512"
   width="512pt"
   version="1.1"
   id="svg8"
   sodipodi:docname="add.svg"
   inkscape:version="1.0.1 (3bc2e813f5, 2020-09-07)">
  <metadata
     id="metadata14">
    <rdf:RDF>
      <cc:Work
         rdf:about="">
        <dc:format>image/svg+xml</dc:format>
        <dc:type
           rdf:resource="http://purl.org/dc/dcmitype/StillImage" />
      </cc:Work>
    </rdf:RDF>
  </metadata>
  <defs
     id="defs12" />
  <sodipodi:namedview
     pagecolor="#ffffff"
     bordercolor="#666666"
     borderopacity="1"
     objecttolerance="10"
     gridtolerance="10"
     guidetolerance="10"
     inkscape:pageopacity="0"
     inkscape:pageshadow="2"
     inkscape:window-width="1858"
     inkscape:window-height="1057"
     id="namedview10"
     showgrid="false"
     inkscape:zoom="0.65185545"
     inkscape:cx="323.66495"
     inkscape:cy="329.61244"
     inkscape:window-x="-8"
     inkscape:window-y="-8"
     inkscape:window-maximized="1"
     inkscape:current-layer="svg8"
     inkscape:document-rotation="0"
     showguides="false">
    <inkscape:grid
       type="xygrid"
       id="grid847" />
  </sodipodi:namedview>
  <path
     d="m 268.929,398.23029 c -3.30904,3.30904 -7.87761,5.35302 -12.92956,5.35025 -10.10113,0.003 -18.28534,-8.18144 -18.28258,-18.28257 V 126.70128 c 0,-10.10389 8.18145,-18.28534 18.28258,-18.28257 10.09837,0 18.28534,8.18144 18.28258,18.28257 v 258.59669 c 0.003,5.05194 -2.04398,9.62328 -5.35302,12.93232 z m 0,0"
     id="path6"
     style="fill:#000000;fill-opacity:0.991936" />
  <g
     inkscape:groupmode="layer"
     id="layer1"
     inkscape:label="shadow" />
  <path
     d="m 113.76878,268.92918 c -3.30904,-3.30904 -5.35302,-7.87761 -5.35025,-12.92956 -0.003,-10.10113 8.18144,-18.28534 18.28257,-18.28258 h 258.59669 c 10.10389,0 18.28534,8.18145 18.28257,18.28258 0,10.09837 -8.18144,18.28534 -18.28257,18.28258 H 126.7011 c -5.05194,0.003 -9.62328,-2.04398 -12.93232,-5.35302 z m 0,0"
     id="path834"
     style="fill:#000000;fill-opacity:0.991936" />
</svg>
