<?xml version="1.0" encoding="UTF-8" standalone="no"?>
<svg
   xmlns:dc="http://purl.org/dc/elements/1.1/"
   xmlns:cc="http://creativecommons.org/ns#"
   xmlns:rdf="http://www.w3.org/1999/02/22-rdf-syntax-ns#"
   xmlns:svg="http://www.w3.org/2000/svg"
   xmlns="http://www.w3.org/2000/svg"
   xmlns:sodipodi="http://sodipodi.sourceforge.net/DTD/sodipodi-0.dtd"
   xmlns:inkscape="http://www.inkscape.org/namespaces/inkscape"
   height="512pt"
   viewBox="0 0 512 512"
   width="512pt"
   version="1.1"
   id="svg8"
   sodipodi:docname="minimize.svg"
   inkscape:version="1.0.1 (3bc2e813f5, 2020-09-07)">
  <metadata
     id="metadata14">
    <rdf:RDF>
      <cc:Work
         rdf:about="">
        <dc:format>image/svg+xml</dc:format>
        <dc:type
           rdf:resource="http://purl.org/dc/dcmitype/StillImage" />
      </cc:Work>
    </rdf:RDF>
  </metadata>
  <defs
     id="defs12" />
  <sodipodi:namedview
     pagecolor="#ffffff"
     bordercolor="#666666"
     borderopacity="1"
     objecttolerance="10"
     gridtolerance="10"
     guidetolerance="10"
     inkscape:pageopacity="0"
     inkscape:pageshadow="2"
     inkscape:window-width="1858"
     inkscape:window-height="1057"
     id="namedview10"
     showgrid="false"
     inkscape:zoom="0.92186282"
     inkscape:cx="77.730316"
     inkscape:cy="369.61042"
     inkscape:window-x="-8"
     inkscape:window-y="-8"
     inkscape:window-maximized="1"
     inkscape:current-layer="svg8"
     inkscape:document-rotation="0" />
  <path
     d="m256 512c-141.160156 0-256-114.839844-256-256s114.839844-256 256-256 256 114.839844 256 256-114.839844 256-256 256zm0-475.429688c-120.992188 0-219.429688 98.4375-219.429688 219.429688s98.4375 219.429688 219.429688 219.429688 219.429688-98.4375 219.429688-219.429688-98.4375-219.429688-219.429688-219.429688zm0 0"
     id="path2"
     style="fill:#ffffff;fill-opacity:1;opacity:1" />
  <path
     d="m 398.2298,324.07253 c -3.30904,-3.30904 -7.88037,-5.35579 -12.93232,-5.35303 H 126.70079 c -10.10389,0 -18.28533,8.18145 -18.28257,18.28258 0,10.09837 8.18144,18.28534 18.28257,18.28258 h 258.59669 c 10.10389,0 18.28534,-8.18144 18.28258,-18.28258 0.003,-5.05194 -2.04123,-9.62052 -5.35026,-12.92955 z m 0,0"
     id="path4"
     style="fill:#ffffff;fill-opacity:0.98387098" />
</svg>
